<?xml version="1.0" encoding="UTF-8" standalone="no"?>
<!-- Created with Inkscape (http://www.inkscape.org/) -->

<svg
   width="20"
   height="20"
   viewBox="0 0 5.2916666 5.2916666"
   version="1.1"
   id="svg5"
   xml:space="preserve"
   inkscape:version="1.2.2 (732a01da63, 2022-12-09)"
   sodipodi:docname="pixi.svg"
   xmlns:inkscape="http://www.inkscape.org/namespaces/inkscape"
   xmlns:sodipodi="http://sodipodi.sourceforge.net/DTD/sodipodi-0.dtd"
   xmlns="http://www.w3.org/2000/svg"
   xmlns:svg="http://www.w3.org/2000/svg"><sodipodi:namedview
     id="namedview7"
     pagecolor="#ffffff"
     bordercolor="#000000"
     borderopacity="0.25"
     inkscape:showpageshadow="2"
     inkscape:pageopacity="0.0"
     inkscape:pagecheckerboard="0"
     inkscape:deskcolor="#d1d1d1"
     inkscape:document-units="mm"
     showgrid="false"
     inkscape:zoom="29.276992"
     inkscape:cx="7.6169027"
     inkscape:cy="14.60191"
     inkscape:window-width="2560"
     inkscape:window-height="1361"
     inkscape:window-x="-9"
     inkscape:window-y="214"
     inkscape:window-maximized="1"
     inkscape:current-layer="layer1" /><defs
     id="defs2" /><g
     inkscape:label="Layer 1"
     inkscape:groupmode="layer"
     id="layer1"><path
       style="fill:#a3a3a3;fill-opacity:1;stroke:none;stroke-width:0.2;stroke-dasharray:none"
       d="m 2.0520558,3.9428156 c 0.4723242,0 0.9580358,0.028276 1.4007828,-0.1657726 C 3.739178,3.6515532 4.0007846,3.4674102 4.1970938,3.2224136 5.2521634,1.9056586 4.2019098,-0.19748656 2.472291,0.01492822 2.2555298,0.04155092 2.0514156,0.08175372 1.8519445,0.174831 1.6267585,0.27990964 1.4050352,0.41759082 1.235,0.6012412 1.0183391,0.83522819 0.85640079,1.115997 0.76575189,1.421408 0.61534239,1.928151 0.69129669,2.5191606 0.69129669,3.0423132 v 1.3007266 c 0,0.2366922 -0.022451,0.4803676 0.1307207,0.6803594 C 1.1189352,5.411076 1.7665775,5.379298 1.9854791,4.9233632 2.1201946,4.642787 2.0520561,4.247206 2.0520561,3.9428156 M 2.6523916,1.3704992 C 3.129778,1.3580312 3.4299858,1.9038372 3.1733028,2.3018996 3.0455914,2.49995 2.8182644,2.5762324 2.592358,2.5817562 c -0.1031374,0.00254 -0.4519924,0.053727 -0.5197302,-0.031777 -0.056174,-0.07094 -0.020571,-0.2616854 -0.020571,-0.348134 0,-0.397843 0.1180256,-0.8187576 0.600335,-0.8313448 z"
       id="path907" /></g></svg>
